<svg width="71" height="68" viewBox="0 0 71 68" fill="none" xmlns="http://www.w3.org/2000/svg">
    <path d="M35.5007 49.6664C38.334 49.6664 40.8574 48.8253 43.071 47.143C45.2845 45.4607 46.893 43.2914 47.8965 40.6352H23.1048C24.1083 43.2914 25.7168 45.4607 27.9303 47.143C30.1439 48.8253 32.6673 49.6664 35.5007 49.6664ZM26.6465 35.4998C28.1222 35.4998 29.3765 34.9833 30.4095 33.9503C31.4425 32.9173 31.959 31.663 31.959 30.1873C31.959 28.7116 31.4425 27.4572 30.4095 26.4242C29.3765 25.3912 28.1222 24.8748 26.6465 24.8748C25.1708 24.8748 23.9165 25.3912 22.8835 26.4242C21.8505 27.4572 21.334 28.7116 21.334 30.1873C21.334 31.663 21.8505 32.9173 22.8835 33.9503C23.9165 34.9833 25.1708 35.4998 26.6465 35.4998ZM44.3548 35.4998C45.8305 35.4998 47.0849 34.9833 48.1178 33.9503C49.1508 32.9173 49.6673 31.663 49.6673 30.1873C49.6673 28.7116 49.1508 27.4572 48.1178 26.4242C47.0849 25.3912 45.8305 24.8748 44.3548 24.8748C42.8791 24.8748 41.6248 25.3912 40.5918 26.4242C39.5588 27.4572 39.0423 28.7116 39.0423 30.1873C39.0423 31.663 39.5588 32.9173 40.5918 33.9503C41.6248 34.9833 42.8791 35.4998 44.3548 35.4998ZM20.1688 15.948L30.5423 2.4737C31.1916 1.64732 31.9469 1.02752 32.8081 0.614329C33.6687 0.201135 34.5689 -0.00546265 35.5086 -0.00546265C36.4478 -0.00546265 37.3453 0.201135 38.2012 0.614329C39.0571 1.02752 39.8097 1.64732 40.459 2.4737L50.8325 15.948L66.5788 21.2445C67.9364 21.7168 68.9989 22.5169 69.7663 23.6449C70.5336 24.7729 70.9173 26.019 70.9173 27.3831C70.9173 28.013 70.8279 28.6416 70.649 29.2691C70.4696 29.8965 70.1753 30.4977 69.7663 31.0727L59.6725 45.505L60.0267 60.8227C60.0267 62.6525 59.4069 64.202 58.1673 65.4711C56.9277 66.7402 55.4467 67.3748 53.7243 67.3748C53.6169 67.3748 53.0614 67.2862 52.0579 67.1091L35.5007 62.505L18.9628 67.1021C18.6547 67.2248 18.338 67.301 18.0128 67.3305C17.6875 67.36 17.3895 67.3748 17.1185 67.3748C15.3837 67.3748 13.9112 66.7346 12.7012 65.4543C11.4911 64.1746 10.9156 62.6012 10.9746 60.7341L11.3288 45.3943L1.23503 30.9841C0.825964 30.4039 0.53171 29.7974 0.352266 29.1646C0.173411 28.5312 0.0839844 27.8982 0.0839844 27.2654C0.0839844 25.9077 0.465304 24.6797 1.22794 23.5812C1.99058 22.4832 3.05544 21.7044 4.42253 21.2445L20.1688 15.948Z" fill="#0051A5"/>
</svg>
